<?xml version="1.0"?>
<svg xmlns="http://www.w3.org/2000/svg" xmlns:xlink="http://www.w3.org/1999/xlink" version="1.1" id="Capa_1" x="0px" y="0px" viewBox="0 0 512 512" style="enable-background:new 0 0 512 512;" xml:space="preserve" width="512px" height="512px" class=""><g><g>
	<g>
		<path d="M486.4,115.2h-128V64c0-28.16-23.04-51.2-51.2-51.2H204.8c-28.16,0-51.2,23.04-51.2,51.2v51.2h-128    C10.24,115.2,0,125.44,0,140.8v332.8c0,12.8,10.24,25.6,25.6,25.6h460.8c12.8,0,25.6-12.8,25.6-25.6V140.8    C512,125.44,499.2,115.2,486.4,115.2z M204.8,64h102.4v51.2H204.8V64z M358.4,320c0,56.32-102.4,102.4-102.4,102.4    S153.6,376.32,153.6,320v-87.04c0-10.24,5.12-20.48,15.36-23.04c61.44-25.6,120.32-25.6,174.08,0    c10.24,5.12,15.36,12.8,15.36,23.04V320z" data-original="#000000" class="active-path" data-old_color="#42DCA3" fill="#42DBA2"/>
	</g>
</g></g> </svg>
